<?xml version="1.0" encoding="UTF-8"?>
<svg id="a" data-name="Layer 1" xmlns="http://www.w3.org/2000/svg" viewBox="0 0 139.669 94.901">
  <g>
    <path d="M91.889,67.046c.243-.254.453-.554.76-.738.382-.28.888-.335,1.236-.663.42-.488,1.032-.675,1.578-.968.463-.433.95-.838,1.537-1.092.343-.189.596-.498.909-.728.987-.637,1.882-1.396,2.817-2.104.524-.336,1.016-.709,1.476-1.128.305-.249.655-.425.984-.637.356-.278.629-.656,1.02-.891.646-.277,1.071-.805,1.599-1.241.824-.446,1.443-1.149,2.229-1.65.986-.753,1.854-1.645,2.874-2.351.423-.483.898-.901,1.458-1.217.593-.601,1.211-1.154,1.891-1.665.638-.536,1.37-1.291,2.1-1.781.617-.505,1.1-1.142,1.84-1.491.494-.437.935-.931,1.518-1.262.703-.572,1.324-1.238,2.019-1.82.524-.35.93-.812,1.358-1.266.475-.406,1.055-.647,1.435-1.167.722-.695,1.576-1.246,2.259-1.986.337-.455.814-.751,1.248-1.097.238-.237.395-.541.629-.782.378-.421,1.016-.836,1.479-.294.375.454.034.985-.393,1.243-.39.496-.767,1.013-1.325,1.336-.54.447-.965,1.02-1.527,1.45-.698.584-1.381,1.167-2.023,1.81-.248.199-.547.327-.792.53-.286.282-.521.614-.831.871-.913.679-1.622,1.399-2.481,2.177-.292.25-.647.42-.931.681-.41.486-.923.844-1.47,1.158-.745.786-1.642,1.387-2.434,2.125-.59.519-1.176,1.039-1.81,1.503-.465.569-1.044.986-1.649,1.388-.474.575-1.085.982-1.67,1.432-.877.866-1.888,1.567-2.846,2.334-.414.449-.97.703-1.451,1.064-.442.518-.983.898-1.581,1.215-.527.501-1.058.98-1.711,1.315-.529.463-1.073.899-1.67,1.273-1.251.983-2.52,1.941-3.796,2.88-.688.262-1.132.85-1.748,1.216-.308.173-.674.246-.943.485-.41.447-.958.714-1.515.933-.343.186-.516.566-.836.786-.249.194-.537.312-.828.423-.602.196-1.192,1.021-1.787.339-.681-1.154,1.098-1.47,1.793-1.948Z" fill="#4169e1" stroke="#4169e1" stroke-miterlimit="10" stroke-width=".25"/>
    <path d="M115.275,25.591c.634.359,1.803,1.083,2.384,1.528.426.476.936.855,1.408,1.282.355.295.825.535,1.16.87.666.787,1.527,1.384,2.399,1.929.581.45,1.173.888,1.72,1.381.957.68,2.062,1.166,2.868,2.048.743.595,1.639,1.015,2.277,1.732.159.179.499.392.275.652-.1.104-.278.113-.382.009-.691-.821-1.653-1.317-2.494-1.961-.426-.445-.904-.814-1.439-1.122-.393-.292-.787-.495-1.216-.769-.872-.687-1.7-1.44-2.664-2.005-.692-.47-1.299-1.04-1.871-1.646-.333-.263-.709-.468-1.029-.748-.465-.425-.974-.794-1.391-1.269-.741-.517-1.533-1.021-2.323-1.477-.286-.215.038-.637.319-.435Z" fill="#4169e1" stroke="#4169e1" stroke-miterlimit="10" stroke-width=".25"/>
    <path d="M89.811,68.294c.005-.023.014-.046.027-.067.689-1.172,1.378-2.343,2.067-3.515.927-1.575,1.853-3.15,2.78-4.726.959-1.63,1.918-3.26,2.876-4.89.975-1.659,1.951-3.316,2.926-4.975.964-1.638,1.928-3.277,2.892-4.915.986-1.676,1.971-3.351,2.957-5.027.987-1.677,1.973-3.354,2.96-5.031.969-1.646,1.937-3.293,2.906-4.939.482-.819.964-1.638,1.445-2.457.229-.389.458-.778.686-1.166.088-.15.176-.299.263-.448.025-.042.049-.084.075-.126.038-.064.071-.13.138-.17.179-.104.396.016.412.22,0,.003,0,.006,0,.01.006.074-.025.143-.074.195-.609,1.034-1.216,2.068-1.825,3.102-.979,1.664-1.956,3.327-2.936,4.991-.971,1.651-1.942,3.303-2.913,4.953-.994,1.689-1.987,3.377-2.98,5.066-.971,1.649-1.941,3.3-2.912,4.95-.965,1.64-1.93,3.281-2.895,4.921-.975,1.657-1.95,3.314-2.925,4.971-.924,1.572-1.849,3.143-2.773,4.715-.893,1.517-1.786,3.035-2.678,4.552-.075.127-.234.179-.366.108-.105-.058-.161-.185-.134-.3Z" fill="#4169e1" stroke="#4169e1" stroke-miterlimit="10" stroke-width=".25"/>
  </g>
  <g>
    <path d="M86.983,62.759c.056-.231.076-.478.193-.69.128-.294.405-.498.497-.808.079-.428.373-.746.592-1.103.123-.411.27-.813.526-1.161.136-.227.179-.494.283-.735.36-.708.624-1.456.93-2.188.192-.375.353-.76.478-1.162.093-.249.238-.471.358-.707.114-.284.144-.597.293-.868.283-.382.351-.835.511-1.27.329-.541.452-1.163.741-1.723.32-.776.523-1.592.879-2.352.083-.426.218-.832.438-1.208.142-.553.315-1.087.538-1.616.19-.53.361-1.221.621-1.755.188-.505.254-1.042.568-1.498.14-.423.229-.862.457-1.254.216-.573.352-1.175.56-1.751.187-.383.267-.791.363-1.202.139-.399.396-.738.441-1.171.185-.652.496-1.264.644-1.93.042-.381.22-.716.356-1.066.058-.22.047-.451.101-.671.078-.375.309-.835.764-.675.374.138.355.564.194.86-.059.422-.103.853-.319,1.232-.163.445-.216.924-.398,1.367-.209.579-.41,1.152-.566,1.746-.077.201-.208.377-.282.58-.071.262-.095.536-.189.792-.302.707-.471,1.37-.708,2.117-.086.246-.235.466-.312.715-.074.424-.252.807-.465,1.177-.167.713-.487,1.369-.699,2.07-.168.504-.333,1.008-.546,1.495-.078.491-.275.931-.491,1.372-.081.498-.3.943-.488,1.406-.217.805-.57,1.559-.868,2.333-.089.404-.327.741-.486,1.116-.082.453-.268.859-.51,1.248-.138.472-.285.933-.552,1.351-.152.451-.321.891-.543,1.313-.396,1-.812,1.992-1.237,2.975-.313.387-.372.882-.607,1.306-.121.206-.31.373-.386.604-.087.401-.317.743-.567,1.061-.137.225-.109.506-.221.744-.079.198-.207.365-.34.529-.285.32-.349,1.003-.929.806-.791-.442.141-1.233.384-1.748Z" fill="#89b99f" stroke="#89b99f" stroke-miterlimit="10" stroke-width=".25"/>
    <path d="M86.533,30.575c.493-.006,1.422.019,1.913.081.411.133.838.181,1.26.27.307.052.664.031.974.113.657.233,1.363.289,2.058.311.493.065.988.12,1.475.221.791.072,1.602-.021,2.373.22.637.095,1.303.035,1.92.237.154.05.425.059.383.287-.023.094-.124.161-.22.136-.683-.244-1.414-.207-2.125-.297-.4-.115-.805-.168-1.223-.166-.329-.037-.628-.022-.972-.035-.744-.104-1.484-.262-2.239-.264-.564-.039-1.114-.165-1.654-.324-.284-.04-.573-.032-.856-.087-.416-.09-.839-.132-1.245-.268-.609-.05-1.243-.075-1.86-.072-.241-.028-.194-.385.038-.363Z" fill="#89b99f" stroke="#89b99f" stroke-miterlimit="10" stroke-width=".25"/>
    <path d="M86.193,64.196c-.005-.015-.007-.032-.007-.048.004-.919.007-1.838.011-2.758.005-1.236.01-2.472.015-3.708.005-1.279.011-2.558.016-3.837.005-1.301.011-2.602.016-3.903.005-1.285.011-2.571.016-3.857.005-1.315.011-2.629.016-3.944.006-1.316.011-2.631.016-3.948.005-1.292.011-2.584.016-3.875.003-.643.005-1.285.008-1.928.002-.305.003-.61.004-.915,0-.117.001-.234.001-.351,0-.033,0-.066,0-.099,0-.05-.003-.101.023-.146.069-.122.237-.126.315-.012.001.002.002.003.004.005.028.041.034.092.023.139-.004.811-.007,1.622-.01,2.434-.005,1.305-.01,2.61-.016,3.916-.005,1.295-.01,2.591-.016,3.886-.006,1.325-.011,2.65-.016,3.975-.006,1.294-.011,2.589-.016,3.883-.005,1.287-.011,2.574-.016,3.861-.006,1.3-.011,2.6-.016,3.9-.005,1.233-.01,2.466-.015,3.699-.005,1.19-.01,2.381-.015,3.572,0,.1-.076.185-.177.188-.081.002-.157-.054-.18-.13Z" fill="#89b99f" stroke="#89b99f" stroke-miterlimit="10" stroke-width=".25"/>
  </g>
  <g>
    <path d="M98.102,72.009c.211-.066.417-.167.642-.176.295-.038.591.085.882.01.379-.141.773-.059,1.163-.054.386-.098.777-.173,1.178-.135.246,0,.479-.093.722-.125.736-.051,1.459-.197,2.189-.304.391-.026.775-.082,1.155-.173.243-.045.49-.035.735-.052.281-.045.545-.17.832-.181.44.044.834-.119,1.257-.198.589.004,1.143-.195,1.728-.232.771-.115,1.52-.343,2.296-.422.379-.137.767-.223,1.172-.227.509-.151,1.017-.268,1.546-.343.514-.102,1.146-.295,1.696-.343.493-.091.952-.295,1.466-.262.405-.09.797-.229,1.218-.234.56-.101,1.105-.28,1.664-.389.395-.033.758-.165,1.132-.285.385-.08.777-.036,1.144-.207.609-.164,1.245-.208,1.846-.408.324-.148.676-.166,1.02-.225.203-.059.382-.178.584-.24.336-.117.813-.152.903.287.068.364-.28.553-.593.565-.365.154-.73.325-1.135.333-.433.082-.84.269-1.28.335-.561.11-1.115.223-1.663.383-.197.034-.4.014-.597.052-.243.068-.473.18-.722.227-.709.097-1.318.278-2.026.446-.237.049-.484.035-.719.093-.373.143-.764.185-1.161.192-.648.207-1.325.265-1.985.431-.482.106-.963.215-1.453.278-.428.172-.874.226-1.329.264-.436.173-.895.211-1.354.282-.746.211-1.515.29-2.275.422-.364.122-.748.093-1.122.145-.4.151-.813.196-1.239.189-.442.116-.88.218-1.341.204-.432.094-.864.169-1.306.194-.987.162-1.976.304-2.963.434-.458-.064-.881.124-1.331.139-.222.002-.446-.069-.666-.019-.361.122-.744.102-1.117.054-.245-.001-.456.155-.699.179-.196.031-.39.009-.584-.018-.391-.075-.966.201-1.086-.356-.025-.842,1.051-.476,1.578-.528Z" fill="#89b99f" stroke="#89b99f" stroke-miterlimit="10" stroke-width=".25"/>
    <path d="M123.555,56.282c.24.39.664,1.143.849,1.564.09.391.256.755.386,1.133.106.27.292.545.375.831.128.635.421,1.225.735,1.79.184.424.376.845.528,1.282.32.665.782,1.268.957,1.998.229.553.594,1.056.728,1.645.033.147.156.368-.046.442-.086.027-.187-.022-.213-.111-.131-.662-.51-1.226-.778-1.836-.099-.374-.25-.722-.452-1.054-.128-.28-.283-.511-.436-.792-.272-.643-.499-1.309-.858-1.912-.238-.469-.4-.967-.531-1.474-.103-.246-.248-.473-.34-.724-.127-.375-.295-.733-.381-1.12-.251-.51-.534-1.027-.831-1.518-.092-.205.214-.339.308-.143Z" fill="#89b99f" stroke="#89b99f" stroke-miterlimit="10" stroke-width=".25"/>
    <path d="M96.579,72.065c.01-.011.022-.021.035-.029.735-.436,1.47-.872,2.205-1.308.988-.586,1.976-1.172,2.964-1.758,1.023-.606,2.045-1.213,3.067-1.819,1.04-.617,2.08-1.234,3.12-1.851,1.028-.609,2.056-1.219,3.083-1.829,1.051-.623,2.102-1.247,3.153-1.87,1.052-.624,2.104-1.248,3.156-1.872,1.033-.612,2.066-1.225,3.098-1.838.514-.305,1.028-.609,1.541-.914.244-.144.488-.289.732-.434.094-.056.187-.111.281-.167.026-.015.053-.031.079-.047.04-.024.079-.05.128-.051.13-.003.213.129.16.246,0,.002-.002.003-.003.005-.019.042-.057.071-.1.085-.649.384-1.297.77-1.946,1.154-1.043.619-2.087,1.238-3.13,1.857-1.036.614-2.071,1.229-3.107,1.843-1.06.628-2.119,1.256-3.178,1.885-1.035.614-2.07,1.228-3.105,1.841-1.029.61-2.058,1.221-3.087,1.831-1.039.616-2.079,1.233-3.118,1.849-.986.585-1.972,1.17-2.957,1.754-.952.564-1.904,1.129-2.856,1.693-.08.047-.183.028-.234-.052-.04-.064-.032-.151.017-.206Z" fill="#89b99f" stroke="#89b99f" stroke-miterlimit="10" stroke-width=".25"/>
  </g>
  <g>
    <path d="M45.353,70.779c-.64.626-1.157-.233-1.735-.474-.278-.132-.553-.271-.783-.482-.299-.242-.439-.63-.762-.84-.531-.26-1.051-.566-1.42-1.039-.246-.256-.602-.357-.891-.552-.579-.41-.97-1.024-1.628-1.336-1.184-1.026-2.36-2.07-3.516-3.137-.559-.416-1.061-.888-1.547-1.386-.618-.381-1.103-.895-1.584-1.43-.565-.36-1.068-.777-1.463-1.322-.446-.393-.974-.687-1.347-1.163-.884-.831-1.826-1.601-2.622-2.524-.542-.49-1.112-.939-1.534-1.543-.564-.444-1.103-.9-1.517-1.497-.589-.507-1.125-1.066-1.667-1.624-.723-.79-1.56-1.452-2.233-2.285-.515-.353-.992-.746-1.358-1.257-.259-.28-.596-.475-.864-.745-.785-.834-1.428-1.601-2.274-2.341-.286-.277-.491-.623-.751-.923-.226-.219-.51-.37-.739-.585-.582-.684-1.21-1.313-1.852-1.943-.52-.468-.894-1.066-1.391-1.549-.525-.363-.856-.902-1.201-1.421-.401-.288-.695-.838-.29-1.256.499-.498,1.095-.039,1.435.406.212.256.343.568.559.82.401.376.848.705,1.144,1.18.616.784,1.414,1.393,2.071,2.135.333.542.886.826,1.323,1.263.387.481.75.969,1.24,1.354.64.628,1.2,1.334,1.848,1.953.549.371.944.894,1.397,1.363.702.402,1.129,1.068,1.697,1.614.681.54,1.344,1.342,1.93,1.92.63.556,1.196,1.15,1.733,1.789.528.356.964.805,1.342,1.314.95.777,1.736,1.724,2.649,2.543.736.555,1.291,1.297,2.068,1.801.486.471.863,1.025,1.478,1.349.367.262.606.657.935.959.307.235.639.436.92.705.42.449.876.856,1.366,1.228.866.771,1.689,1.59,2.612,2.295.291.252.516.576.839.789.559.297,1.007.734,1.43,1.197.516.332,1.104.564,1.48,1.079.318.35.812.445,1.167.751.287.206.471.517.691.787.647.525,2.376.977,1.614,2.061Z" fill="#4169e1" stroke="#4169e1" stroke-miterlimit="10" stroke-width=".25"/>
    <path d="M24.22,26.471c-.815.387-1.636.822-2.406,1.273-.448.435-.979.759-1.471,1.141-.338.251-.725.423-1.074.657-.611.552-1.255,1.066-1.974,1.475-.994.481-1.869,1.158-2.783,1.767-.445.236-.849.405-1.259.663-.552.261-1.052.588-1.507.993-.88.569-1.866.982-2.612,1.737-.111.094-.286.071-.376-.039-.2-.273.151-.457.323-.621.686-.657,1.602-1.001,2.381-1.529.863-.806,1.991-1.198,2.988-1.794.578-.442,1.195-.828,1.804-1.226.902-.469,1.798-.99,2.516-1.713.356-.304.839-.504,1.212-.766.499-.384,1.032-.718,1.489-1.153.607-.393,1.816-1.015,2.47-1.319.292-.177.579.264.28.454Z" fill="#4169e1" stroke="#4169e1" stroke-miterlimit="10" stroke-width=".25"/>
    <path d="M45.534,70.396c-.136.06-.289-.004-.353-.135-.761-1.566-1.522-3.132-2.283-4.697-.788-1.622-1.576-3.244-2.364-4.866-.831-1.71-1.662-3.42-2.493-5.13-.822-1.693-1.645-3.386-2.467-5.078-.827-1.702-1.654-3.405-2.482-5.108-.847-1.743-1.693-3.485-2.54-5.228-.828-1.704-1.655-3.408-2.483-5.112-.835-1.717-1.668-3.433-2.502-5.15-.519-1.067-1.037-2.134-1.556-3.201-.045-.054-.069-.125-.058-.198,0-.004.001-.006.001-.009.031-.2.255-.301.423-.185.063.044.091.112.123.178.021.044.042.087.064.13.074.154.149.308.224.462.195.401.39.803.585,1.204.41.845.821,1.691,1.232,2.536.825,1.699,1.651,3.398,2.476,5.097.841,1.731,1.682,3.462,2.523,5.192.84,1.729,1.68,3.458,2.52,5.188.822,1.691,1.643,3.382,2.465,5.072.831,1.712,1.663,3.422,2.494,5.134.817,1.682,1.634,3.364,2.452,5.046.79,1.626,1.58,3.251,2.369,4.877.587,1.209,1.175,2.418,1.762,3.627.011.022.018.045.021.068.018.115-.048.236-.155.285Z" fill="#4169e1" stroke="#4169e1" stroke-miterlimit="10" stroke-width=".25"/>
  </g>
  <g>
    <path d="M49.062,66.452c-.588.145-.594-.533-.848-.872-.117-.173-.229-.348-.29-.55-.091-.243-.039-.518-.155-.751-.22-.334-.418-.691-.47-1.093-.056-.234-.228-.415-.33-.628-.196-.437-.214-.93-.489-1.337-.337-1.004-.663-2.016-.97-3.035-.183-.434-.313-.882-.425-1.339-.229-.434-.335-.9-.431-1.377-.206-.404-.355-.819-.398-1.273-.125-.382-.331-.735-.385-1.14-.229-.788-.513-1.56-.66-2.371-.147-.472-.325-.929-.363-1.426-.176-.452-.334-.903-.369-1.393-.169-.498-.289-1.008-.413-1.518-.15-.708-.41-1.382-.515-2.098-.179-.382-.321-.775-.359-1.199-.055-.252-.184-.482-.248-.731-.171-.756-.282-1.423-.521-2.145-.071-.26-.072-.532-.12-.796-.056-.205-.17-.391-.23-.595-.104-.598-.254-1.18-.411-1.768-.142-.451-.155-.928-.278-1.38-.181-.391-.189-.819-.212-1.24-.135-.305-.117-.727.263-.831.462-.119.651.353.696.729.035.222.005.448.044.67.105.357.252.702.261,1.08.089.668.345,1.297.473,1.955.008.43.233.785.336,1.19.06.413.104.822.257,1.215.157.586.241,1.189.406,1.772.192.405.243.845.346,1.274.271.476.291,1.01.434,1.523.211.548.322,1.243.465,1.782.176.54.301,1.081.395,1.638.185.389.285.8.33,1.227.287.779.419,1.601.669,2.392.238.576.306,1.199.586,1.76.121.442.15.894.398,1.294.124.279.127.591.216.88.098.243.223.473.294.727.09.406.216.799.374,1.185.24.747.438,1.506.733,2.234.083.247.102.513.218.748.224.365.335.774.422,1.188.186.371.449.708.491,1.137.065.313.32.538.422.838.097.219.097.463.132.696.197.528,1.049,1.385.232,1.755Z" fill="#89b99f" stroke="#89b99f" stroke-miterlimit="10" stroke-width=".25"/>
    <path d="M51.973,33.382c-.608-.055-1.235-.083-1.839-.085-.41.1-.831.106-1.249.16-.283.03-.567-.002-.851.014-.546.111-1.097.19-1.657.181-.744-.061-1.487.033-2.228.073-.34-.015-.634-.055-.961-.047-.411-.037-.815-.019-1.219.061-.708.029-1.425-.069-2.118.115-.097.017-.191-.057-.205-.152-.023-.228.245-.214.401-.251.625-.147,1.277-.033,1.912-.073.78-.173,1.572-.014,2.357-.018.489-.059.981-.072,1.472-.094.687.037,1.387.041,2.054-.134.312-.055.662-.005.969-.03.423-.052.848-.064,1.264-.16.489-.02,1.407.033,1.892.08.231-.003.247.353.007.361Z" fill="#89b99f" stroke="#89b99f" stroke-miterlimit="10" stroke-width=".25"/>
    <path d="M49.299,66.291c-.1-.012-.167-.102-.159-.2.095-1.173.189-2.347.284-3.521.098-1.215.197-2.431.295-3.646.103-1.282.207-2.563.31-3.845.103-1.268.205-2.537.307-3.806.103-1.276.206-2.552.309-3.828.106-1.306.211-2.612.316-3.918.103-1.277.207-2.554.31-3.831.103-1.287.208-2.573.312-3.86.064-.8.129-1.599.193-2.399-.008-.047.003-.097.034-.135.002-.002.003-.003.004-.005.087-.106.252-.088.31.038.022.047.015.096.01.146-.003.033-.005.065-.008.098-.01.115-.019.23-.028.346-.024.3-.049.602-.073.902-.051.633-.103,1.267-.153,1.9-.103,1.273-.206,2.547-.309,3.82-.105,1.297-.21,2.594-.314,3.891-.105,1.296-.21,2.592-.314,3.888-.102,1.267-.205,2.534-.307,3.801-.104,1.283-.207,2.565-.311,3.847-.102,1.26-.204,2.521-.305,3.782-.098,1.218-.197,2.436-.295,3.655-.073.906-.147,1.812-.22,2.718-.001.017-.005.032-.011.047-.029.073-.109.121-.188.113Z" fill="#89b99f" stroke="#89b99f" stroke-miterlimit="10" stroke-width=".25"/>
  </g>
  <g>
    <path d="M38.739,73.767c-.162.539-.708.223-1.099.265-.193.012-.387.019-.577-.028-.238-.043-.433-.214-.675-.231-.371.018-.75.007-1.097-.141-.213-.066-.44-.014-.658-.033-.443-.05-.845-.269-1.301-.242-.963-.206-1.927-.424-2.887-.66-.434-.059-.854-.167-1.272-.294-.456-.022-.879-.158-1.306-.307-.42-.027-.824-.104-1.207-.284-.365-.081-.745-.083-1.094-.231-.739-.189-1.491-.328-2.209-.594-.447-.106-.897-.179-1.313-.384-.445-.073-.88-.161-1.289-.364-.478-.101-.943-.246-1.41-.388-.638-.215-1.3-.326-1.922-.581-.39-.038-.773-.11-1.129-.28-.228-.076-.472-.081-.702-.148-.685-.221-1.272-.448-1.962-.599-.241-.066-.459-.194-.693-.281-.191-.052-.393-.049-.584-.098-.528-.2-1.064-.356-1.609-.508-.428-.1-.816-.315-1.236-.431-.399-.04-.745-.237-1.093-.418-.308-.037-.637-.25-.541-.604.123-.425.591-.354.913-.212.194.077.361.208.556.282.335.085.681.131.988.302.577.245,1.201.338,1.788.547.348.197.739.186,1.111.294.359.148.707.306,1.093.369.543.152,1.066.37,1.61.514.415.038.791.205,1.183.326.509.009.945.245,1.424.374.539.091,1.147.331,1.645.472.515.115,1.007.27,1.497.459.399.036.775.151,1.138.316.759.139,1.479.422,2.23.597.573.083,1.104.322,1.685.364.411.112.786.303,1.223.294.282.033.533.178.806.244.241.036.484.046.72.109.368.12.742.205,1.125.261.711.162,1.412.363,2.134.471.236.051.459.161.701.18.398-.006.777.098,1.15.225.385.026.779-.024,1.142.145.281.097.582-.002.87.059.221.026.416.142.619.224.516.093,1.605-.183,1.514.645Z" fill="#89b99f" stroke="#89b99f" stroke-miterlimit="10" stroke-width=".25"/>
    <path d="M13.66,55.787c-.331.46-.651.949-.938,1.431-.115.375-.309.715-.463,1.075-.11.241-.27.453-.392.687-.169.489-.367.968-.639,1.411-.401.567-.678,1.205-.996,1.817-.173.265-.344.481-.492.747-.225.311-.401.643-.528,1.004-.311.58-.729,1.107-.911,1.749-.032.086-.136.126-.219.092-.193-.09-.055-.297-.011-.44.178-.57.578-1.037.847-1.564.231-.706.733-1.264,1.101-1.894.184-.419.407-.819.621-1.222.355-.532.689-1.091.865-1.707.104-.276.309-.532.435-.79.158-.363.35-.708.47-1.087.215-.4.692-1.11.96-1.475.107-.186.399-.03.292.165Z" fill="#89b99f" stroke="#89b99f" stroke-miterlimit="10" stroke-width=".25"/>
    <path d="M38.722,73.502c-.056.074-.16.085-.235.033-.894-.631-1.788-1.262-2.682-1.893-.926-.654-1.852-1.308-2.778-1.962-.976-.689-1.953-1.379-2.929-2.068-.966-.682-1.933-1.365-2.899-2.047-.972-.686-1.944-1.373-2.916-2.059-.995-.703-1.99-1.405-2.985-2.108-.973-.687-1.945-1.374-2.918-2.061-.98-.692-1.96-1.384-2.94-2.076-.609-.43-1.218-.86-1.828-1.29-.041-.016-.076-.048-.092-.091,0-.002-.001-.004-.002-.006-.044-.12.049-.243.177-.23.048.005.084.034.122.061.025.018.05.035.074.052.088.062.175.124.264.186.229.162.458.324.687.485.482.341.965.682,1.448,1.022.97.685,1.94,1.37,2.91,2.055.988.698,1.976,1.396,2.964,2.093.987.697,1.974,1.394,2.961,2.091.965.681,1.931,1.363,2.896,2.045.977.69,1.954,1.38,2.931,2.07.96.678,1.92,1.356,2.881,2.034.928.655,1.856,1.31,2.784,1.966.69.487,1.38.975,2.071,1.462.013.009.023.019.032.031.045.058.045.145,0,.204Z" fill="#89b99f" stroke="#89b99f" stroke-miterlimit="10" stroke-width=".25"/>
  </g>
  <g>
    <path d="M69.099,64.386c-.892.085-.754-.909-1.052-1.459-.134-.278-.26-.558-.306-.867-.08-.376.054-.766-.065-1.133-.25-.536-.462-1.101-.452-1.7-.031-.354-.244-.656-.347-.989-.193-.682-.112-1.406-.427-2.062-.277-1.542-.535-3.093-.764-4.649-.174-.675-.268-1.358-.332-2.05-.241-.685-.296-1.389-.334-2.108-.214-.635-.343-1.275-.308-1.948-.1-.586-.326-1.147-.318-1.751-.166-1.202-.414-2.393-.454-3.611-.113-.722-.275-1.429-.224-2.164-.16-.7-.293-1.393-.239-2.118-.139-.765-.206-1.537-.276-2.31-.066-1.068-.301-2.11-.301-3.181-.179-.598-.303-1.204-.267-1.832-.025-.381-.165-.744-.204-1.123-.087-1.143-.105-2.142-.298-3.25-.048-.395.01-.793-.004-1.19-.038-.313-.165-.608-.207-.919-.023-.898-.116-1.781-.22-2.675-.111-.691-.026-1.391-.109-2.079-.18-.612-.099-1.239-.042-1.86-.131-.476-.014-1.088.564-1.159.701-.074.877.658.861,1.217.004.332-.09.657-.081.989.076.544.217,1.081.149,1.637-.013.997.224,1.972.27,2.963-.082.631.171,1.199.235,1.814-.001.617-.025,1.225.113,1.832.103.89.095,1.792.211,2.68.194.634.173,1.288.231,1.938.293.754.207,1.54.306,2.322.19.848.202,1.888.295,2.707.14.829.208,1.646.224,2.481.187.609.244,1.232.219,1.866.251,1.201.268,2.432.463,3.643.223.894.189,1.82.477,2.701.082.672.027,1.34.303,1.979.121.435.059.892.126,1.333.092.376.223.741.273,1.127.045.613.144,1.216.292,1.814.189,1.144.315,2.298.59,3.426.068.378.039.772.157,1.141.249.582.323,1.204.36,1.83.192.582.504,1.132.473,1.769.027.472.352.856.436,1.317.094.341.041.698.043,1.046.174.815,1.235,2.253-.039,2.617Z" fill="#4169e1" stroke="#4169e1" stroke-miterlimit="10" stroke-width=".25"/>
    <path d="M80.495,16.637c-.877-.211-1.789-.388-2.672-.521-.622.057-1.239-.025-1.861-.036-.421-.017-.83-.126-1.248-.164-.822.045-1.646.041-2.463-.092-1.076-.25-2.182-.273-3.276-.374-.494-.096-.915-.218-1.396-.276-.594-.143-1.188-.204-1.796-.174-1.042-.11-2.069-.408-3.124-.29-.145.004-.267-.125-.268-.267.016-.338.405-.26.641-.28.946-.08,1.875.228,2.813.306,1.178-.085,2.302.319,3.451.482.728.019,1.451.107,2.173.179.997.202,2.021.359,3.034.248.468-.013.969.135,1.424.165.63.015,1.254.09,1.883.038.719.076,2.051.352,2.75.526.338.046.284.569-.067.529Z" fill="#4169e1" stroke="#4169e1" stroke-miterlimit="10" stroke-width=".25"/>
    <path d="M69.48,64.202c-.143-.038-.222-.185-.19-.327.392-1.696.784-3.393,1.175-5.089.406-1.757.812-3.514,1.218-5.27.428-1.853.856-3.705,1.284-5.557.424-1.833.848-3.667,1.271-5.501.426-1.844.853-3.689,1.278-5.533.436-1.888.873-3.775,1.308-5.663.426-1.846.854-3.691,1.28-5.537.429-1.86.859-3.719,1.289-5.579.266-1.156.534-2.312.801-3.467,0-.07.025-.141.079-.19.003-.002.005-.004.007-.006.15-.136.387-.075.445.122.022.074,0,.144-.016.216-.011.048-.022.094-.032.141-.039.166-.077.333-.116.5-.101.434-.201.869-.301,1.304-.212.916-.424,1.831-.635,2.747-.426,1.84-.851,3.681-1.276,5.522-.434,1.875-.867,3.75-1.299,5.624-.433,1.873-.866,3.746-1.299,5.619-.423,1.831-.846,3.663-1.269,5.495-.429,1.854-.856,3.707-1.285,5.561-.421,1.822-.842,3.644-1.263,5.466-.407,1.761-.814,3.522-1.221,5.283-.303,1.31-.605,2.619-.908,3.929-.005.024-.015.046-.026.067-.058.1-.186.154-.3.124Z" fill="#4169e1" stroke="#4169e1" stroke-miterlimit="10" stroke-width=".25"/>
  </g>
</svg>