<?xml version="1.0" encoding="UTF-8"?>
<svg id="a" data-name="Layer 1" xmlns="http://www.w3.org/2000/svg" viewBox="0 0 77.955 70.517">
  <path d="M14.367,27.314c6.575-3.369,12.474,1.685,16.737-1.641,1.918-1.496,3.594-4.758,2.626-12.471,0,0,.327-4.412,3.46-6.087.553-.296,2.041-.965,5.565-.148,3.334.773,11.253,3.516,11.651,8.205.253,2.989-2.826,3.512-4.225,8-1.341,4.299-.225,9.304,1.928,12.676,4.414,6.913,12.226,5.453,13.784,11.158,1.028,3.764-1.598,7.233-1.832,7.533-1.819,2.331-5.304,4.332-7.685,3.297-1.785-.776-1.49-2.623-3.364-4.677-2.216-2.429-6.073-3.619-8.779-3.2-7.44,1.151-7.639,14.691-14.44,15.425-2.79.301-6.163-1.639-7.339-4.495-1.201-2.918.776-6.007.776-6.007,0,0,5.907-3.938,3.282-8.533-2.625-4.595-9.846-1.313-9.846-1.313-4.238-.314-7.887-2.223-9.082-5.227-1.787-4.493,2.389-10.242,6.785-12.495Z" fill="#fdd9da"/>
  <circle cx="22.509" cy="17.659" r="5.229" fill="#fdd9da"/>
  <circle cx="61.654" cy="30.491" r="5.504" fill="#fdd9da"/>
  <circle cx="46.481" cy="59.102" r="5.144" fill="#fdd9da"/>
</svg>